<?xml version="1.0" encoding="UTF-8"?>
<svg width="26px" height="26px" viewBox="0 0 26 26" version="1.1" xmlns="http://www.w3.org/2000/svg" xmlns:xlink="http://www.w3.org/1999/xlink">
    <title>collect_01</title>
    <defs>
        <linearGradient x1="100%" y1="92.6035503%" x2="0%" y2="7.3964497%" id="linearGradient-1">
            <stop stop-color="#FF5A33" offset="0%"></stop>
            <stop stop-color="#FFA98C" offset="100%"></stop>
        </linearGradient>
    </defs>
    <g id="页面-1" stroke="none" stroke-width="1" fill="none" fill-rule="evenodd">
        <g id="PC切图" transform="translate(-146.000000, -106.000000)">
            <g id="编组-6备份-5" transform="translate(146.000000, 106.000000)">
                <path d="M25.9602689,10.1098224 C25.8647806,9.82550804 25.6106973,9.61831234 25.3049692,9.57530468 L17.3054406,8.45078101 L13.7279646,1.43779263 C13.5912041,1.16971158 13.309054,1 13.0000137,1 C12.6910169,1 12.4088232,1.16971158 12.2720627,1.43779263 L8.69454309,8.45078101 L0.695058093,9.57534685 C0.389286441,9.6183545 0.13524668,9.8255502 0.0397584118,10.1098645 C-0.0557298564,10.3941789 0.0238945462,10.7062795 0.245160606,10.914951 L6.03364112,16.3738451 L4.66716957,24.0818287 C4.6149147,24.3764733 4.74012592,24.6742803 4.99011255,24.8499792 C5.1315363,24.9493606 5.29897853,25 5.46733598,25 C5.59651318,25 5.72625693,24.9701898 5.8450616,24.9097261 C12.3429126,23.3623781 15.7241096,22.6559704 15.9886526,22.7905028 L20.1550529,24.9096839 C20.4284431,25.0487842 20.7599717,25.0256359 21.0099584,24.8498949 C21.2599014,24.6741538 21.385069,24.3764312 21.3328577,24.0817444 L19.9663426,16.3737608 L25.7548231,10.9149088 C25.9760892,10.7062373 26.0557136,10.3941367 25.9602689,10.1098224 Z" id="路径" fill="url(#linearGradient-1)"></path>
                <path d="M11,16 C11,17.1045695 11.8954305,18 13,18 C14.1045695,18 15,17.1045695 15,16" id="Oval-2" stroke="#FFFFFF" stroke-width="2" opacity="0.804848" stroke-linecap="round" stroke-linejoin="round" fill-rule="nonzero"></path>
                <rect id="矩形" fill="#FFFFFF" opacity="0" x="0" y="0" width="26" height="26"></rect>
            </g>
        </g>
    </g>
</svg>